solid exported
	facet normal 0 -1 -2.220446049250313e-16
		outer loop
			vertex -0.4250133502960205 2.4001784819361034e-16 -1.0809442916870118
			vertex -0.22960553455352783 1.7215906993858818e-16 -0.7753355232238769
			vertex -0.4250133502960205 8.033723536201719e-17 -0.36180674324035644
		endloop
	endfacet
	facet normal 0 -1 -2.220446049250313e-16
		outer loop
			vertex -0.22960553455352783 1.7215906993858818e-16 -0.7753355232238769
			vertex -0.4250133502960205 2.4001784819361034e-16 -1.0809442916870118
			vertex -0.21221582565307617 1.7896122358687518e-16 -0.8059696998596191
		endloop
	endfacet
	facet normal 0 -1 -2.220446049250313e-16
		outer loop
			vertex -0.21221582565307617 1.7896122358687518e-16 -0.8059696998596191
			vertex -0.4250133502960205 2.4001784819361034e-16 -1.0809442916870118
			vertex -0.18748997297286987 1.845322236554707e-16 -0.8310592536926269
		endloop
	endfacet
	facet normal 0 -1 -2.220446049250313e-16
		outer loop
			vertex -0.18748997297286987 1.845322236554707e-16 -0.8310592536926269
			vertex -0.4250133502960205 2.4001784819361034e-16 -1.0809442916870118
			vertex -0.15711297540664673 1.8849242286233862e-16 -0.8488944053649902
		endloop
	endfacet
	facet normal 0 -1 -2.220446049250313e-16
		outer loop
			vertex -0.15711297540664673 1.8849242286233862e-16 -0.8488944053649902
			vertex -0.4250133502960205 2.4001784819361034e-16 -1.0809442916870118
			vertex 0.24491169815063477 2.4001784819361034e-16 -1.0809442916870118
		endloop
	endfacet
	facet normal 0 -1 -2.220446049250313e-16
		outer loop
			vertex -0.4250133502960205 8.033723536201719e-17 -0.36180674324035644
			vertex -0.22960553455352783 1.7215906993858818e-16 -0.7753355232238769
			vertex -0.23847396125793455 1.6458931707640085e-16 -0.7412443870544433
		endloop
	endfacet
	facet normal 0 -0.9999999999999999 -2.2204460492503128e-16
		outer loop
			vertex -0.15711297540664673 1.8849242286233862e-16 -0.8488944053649902
			vertex 0.24491169815063477 2.4001784819361034e-16 -1.0809442916870118
			vertex -0.12315497064590454 1.9057192008806698e-16 -0.8582596282958984
		endloop
	endfacet
	facet normal 0 -1 -2.220446049250313e-16
		outer loop
			vertex -0.12315497064590454 1.9057192008806698e-16 -0.8582596282958984
			vertex 0.24491169815063477 2.4001784819361034e-16 -1.0809442916870118
			vertex -0.08793015246391296 1.9062899841965726e-16 -0.8585166862487793
		endloop
	endfacet
	facet normal 0 -1 -2.220446049250313e-16
		outer loop
			vertex -0.08793015246391296 1.9062899841965726e-16 -0.8585166862487793
			vertex 0.24491169815063477 2.4001784819361034e-16 -1.0809442916870118
			vertex -0.0538390344619751 1.886598282517483e-16 -0.8496483322143554
		endloop
	endfacet
	facet normal 0 -1 -2.220446049250313e-16
		outer loop
			vertex -0.0538390344619751 1.886598282517483e-16 -0.8496483322143554
			vertex 0.24491169815063477 2.4001784819361034e-16 -1.0809442916870118
			vertex -0.023204860854148864 1.8479855334516386e-16 -0.8322586959838867
		endloop
	endfacet
	facet normal 0 -1 -2.220446049250313e-16
		outer loop
			vertex -0.023204860854148864 1.8479855334516386e-16 -0.8322586959838867
			vertex 0.24491169815063477 2.4001784819361034e-16 -1.0809442916870118
			vertex 0.001884691086411476 1.793082977087049e-16 -0.8075327827453613
		endloop
	endfacet
	facet normal 0 -1 -2.220446049250313e-16
		outer loop
			vertex 0.001884691086411476 1.793082977087049e-16 -0.8075327827453613
			vertex 0.24491169815063477 2.4001784819361034e-16 -1.0809442916870118
			vertex 0.019719812858104705 1.7256322239200815e-16 -0.7771556640624999
		endloop
	endfacet
	facet normal 0 -1 -2.220446049250313e-16
		outer loop
			vertex 0.019719812858104705 1.7256322239200815e-16 -0.7771556640624999
			vertex 0.24491169815063477 2.4001784819361034e-16 -1.0809442916870118
			vertex 0.029085082721710204 1.6502308442745898e-16 -0.7431979015350342
		endloop
	endfacet
	facet normal 0 -1 -2.220446049250313e-16
		outer loop
			vertex 0.029085082721710204 1.6502308442745898e-16 -0.7431979015350342
			vertex 0.24491169815063477 2.4001784819361034e-16 -1.0809442916870118
			vertex 0.029342231512069702 1.5720156728473288e-16 -0.707972919845581
		endloop
	endfacet
	facet normal 0 -1 -2.220446049250313e-16
		outer loop
			vertex -0.4250133502960205 8.033723536201719e-17 -0.36180674324035644
			vertex -0.18592687797546387 1.369923310159699e-16 -0.6169586109161377
			vertex 0.24491169815063477 8.033723536201719e-17 -0.36180674324035644
		endloop
	endfacet
	facet normal 0 -1 -2.220446049250313e-16
		outer loop
			vertex -0.18592687797546387 1.369923310159699e-16 -0.6169586109161377
			vertex -0.4250133502960205 8.033723536201719e-17 -0.36180674324035644
			vertex -0.21101640758514403 1.4248258665242886e-16 -0.641684524154663
		endloop
	endfacet
	facet normal 0 -1 -2.220446049250313e-16
		outer loop
			vertex -0.21101640758514403 1.4248258665242886e-16 -0.641684524154663
			vertex -0.4250133502960205 8.033723536201719e-17 -0.36180674324035644
			vertex -0.2288515592575073 1.492276619691256e-16 -0.6720616428375243
		endloop
	endfacet
	facet normal 0 -1 -2.220446049250313e-16
		outer loop
			vertex -0.2288515592575073 1.492276619691256e-16 -0.6720616428375243
			vertex -0.4250133502960205 8.033723536201719e-17 -0.36180674324035644
			vertex -0.2382168306350708 1.5676785372026692e-16 -0.7060196475982665
		endloop
	endfacet
	facet normal 0 -0.9999999999999999 -2.2204460492503128e-16
		outer loop
			vertex -0.2382168306350708 1.5676785372026692e-16 -0.7060196475982665
			vertex -0.4250133502960205 8.033723536201719e-17 -0.36180674324035644
			vertex -0.23847396125793455 1.6458931707640085e-16 -0.7412443870544433
		endloop
	endfacet
	facet normal 0 -1 -2.220446049250313e-16
		outer loop
			vertex 0.24491169815063477 8.033723536201719e-17 -0.36180674324035644
			vertex -0.18592687797546387 1.369923310159699e-16 -0.6169586109161377
			vertex -0.15529270133972167 1.3313106686670388e-16 -0.5995690231323242
		endloop
	endfacet
	facet normal 0 -0.9999999999999999 -2.2204460492503128e-16
		outer loop
			vertex 0.24491169815063477 8.033723536201719e-17 -0.36180674324035644
			vertex -0.15529270133972167 1.3313106686670388e-16 -0.5995690231323242
			vertex -0.12120158939361572 1.311618859414765e-16 -0.5907006206512451
		endloop
	endfacet
	facet normal 0 -1 -2.220446049250313e-16
		outer loop
			vertex 0.24491169815063477 8.033723536201719e-17 -0.36180674324035644
			vertex -0.12120158939361572 1.311618859414765e-16 -0.5907006206512451
			vertex -0.08597676515579224 1.3121896427306678e-16 -0.590957678604126
		endloop
	endfacet
	facet normal 0 -1 -2.220446049250313e-16
		outer loop
			vertex 0.24491169815063477 8.033723536201719e-17 -0.36180674324035644
			vertex -0.08597676515579224 1.3121896427306678e-16 -0.590957678604126
			vertex -0.05201876645088196 1.3329846149879514e-16 -0.6003229015350342
		endloop
	endfacet
	facet normal 0 -1 -2.220446049250313e-16
		outer loop
			vertex 0.24491169815063477 8.033723536201719e-17 -0.36180674324035644
			vertex -0.05201876645088196 1.3329846149879514e-16 -0.6003229015350342
			vertex -0.021641762828826905 1.372586499483446e-16 -0.6181580047607421
		endloop
	endfacet
	facet normal 0 -1 -2.220446049250313e-16
		outer loop
			vertex 0.24491169815063477 8.033723536201719e-17 -0.36180674324035644
			vertex -0.021641762828826905 1.372586499483446e-16 -0.6181580047607421
			vertex 0.003084098556637764 1.42829671531577e-16 -0.6432476554870605
		endloop
	endfacet
	facet normal 0 -1 -2.220446049250313e-16
		outer loop
			vertex 0.24491169815063477 8.033723536201719e-17 -0.36180674324035644
			vertex 0.003084098556637764 1.42829671531577e-16 -0.6432476554870605
			vertex 0.02047379420995712 1.49631825179864e-16 -0.6738818321228027
		endloop
	endfacet
	facet normal 0 -1 -2.220446049250313e-16
		outer loop
			vertex 0.24491169815063477 8.033723536201719e-17 -0.36180674324035644
			vertex 0.02047379420995712 1.49631825179864e-16 -0.6738818321228027
			vertex 0.029342231512069702 1.5720156728473288e-16 -0.707972919845581
		endloop
	endfacet
	facet normal 0 -1 -2.220446049250313e-16
		outer loop
			vertex 0.24491169815063477 8.033723536201719e-17 -0.36180674324035644
			vertex 0.029342231512069702 1.5720156728473288e-16 -0.707972919845581
			vertex 0.24491169815063477 2.4001784819361034e-16 -1.0809442916870118
		endloop
	endfacet
	facet normal 0.9999999999999999 0 0
		outer loop
			vertex 0.24491169815063477 2.4001784819361034e-16 -1.0809442916870118
			vertex 0.24491169815063477 0.37941250000000004 -0.36180674324035633
			vertex 0.24491169815063477 8.033723536201719e-17 -0.36180674324035644
		endloop
	endfacet
	facet normal 0.9999999999999999 0 0
		outer loop
			vertex 0.24491169815063477 0.37941250000000004 -0.36180674324035633
			vertex 0.24491169815063477 2.4001784819361034e-16 -1.0809442916870118
			vertex 0.24491169815063477 0.3794125000000002 -1.0809442916870118
		endloop
	endfacet
	facet normal 0 -2.2204460492503128e-16 0.9999999999999999
		outer loop
			vertex 0.24491169815063477 0.37941250000000004 -0.36180674324035633
			vertex -0.4250133502960205 8.033723536201719e-17 -0.36180674324035644
			vertex 0.24491169815063477 8.033723536201719e-17 -0.36180674324035644
		endloop
	endfacet
	facet normal 0 -2.2204460492503128e-16 0.9999999999999999
		outer loop
			vertex -0.4250133502960205 8.033723536201719e-17 -0.36180674324035644
			vertex 0.24491169815063477 0.37941250000000004 -0.36180674324035633
			vertex -0.4250133502960205 0.37941250000000004 -0.36180674324035633
		endloop
	endfacet
	facet normal -0.9999999999999999 0 0
		outer loop
			vertex -0.4250133502960205 0.3794125000000002 -1.0809442916870118
			vertex -0.4250133502960205 8.033723536201719e-17 -0.36180674324035644
			vertex -0.4250133502960205 0.37941250000000004 -0.36180674324035633
		endloop
	endfacet
	facet normal -0.9999999999999999 0 0
		outer loop
			vertex -0.4250133502960205 8.033723536201719e-17 -0.36180674324035644
			vertex -0.4250133502960205 0.3794125000000002 -1.0809442916870118
			vertex -0.4250133502960205 2.4001784819361034e-16 -1.0809442916870118
		endloop
	endfacet
	facet normal 0 2.2204460492503128e-16 -0.9999999999999999
		outer loop
			vertex -0.4250133502960205 0.3794125000000002 -1.0809442916870118
			vertex 0.24491169815063477 2.4001784819361034e-16 -1.0809442916870118
			vertex -0.4250133502960205 2.4001784819361034e-16 -1.0809442916870118
		endloop
	endfacet
	facet normal 0 2.2204460492503128e-16 -0.9999999999999999
		outer loop
			vertex 0.24491169815063477 2.4001784819361034e-16 -1.0809442916870118
			vertex -0.4250133502960205 0.3794125000000002 -1.0809442916870118
			vertex 0.24491169815063477 0.3794125000000002 -1.0809442916870118
		endloop
	endfacet
	facet normal 0 1 2.220446049250313e-16
		outer loop
			vertex -0.4250133502960205 0.37941250000000004 -0.36180674324035633
			vertex -0.2288515592575073 0.37941250000000015 -0.6720616428375242
			vertex -0.4250133502960205 0.3794125000000002 -1.0809442916870118
		endloop
	endfacet
	facet normal 0 1 2.220446049250313e-16
		outer loop
			vertex -0.2288515592575073 0.37941250000000015 -0.6720616428375242
			vertex -0.4250133502960205 0.37941250000000004 -0.36180674324035633
			vertex -0.21101640758514403 0.37941250000000015 -0.6416845241546629
		endloop
	endfacet
	facet normal 0 1 2.220446049250313e-16
		outer loop
			vertex -0.21101640758514403 0.37941250000000015 -0.6416845241546629
			vertex -0.4250133502960205 0.37941250000000004 -0.36180674324035633
			vertex -0.18592687797546387 0.3794125000000001 -0.6169586109161376
		endloop
	endfacet
	facet normal 0 1 2.220446049250313e-16
		outer loop
			vertex -0.18592687797546387 0.3794125000000001 -0.6169586109161376
			vertex -0.4250133502960205 0.37941250000000004 -0.36180674324035633
			vertex 0.24491169815063477 0.37941250000000004 -0.36180674324035633
		endloop
	endfacet
	facet normal 0 1 2.220446049250313e-16
		outer loop
			vertex -0.4250133502960205 0.3794125000000002 -1.0809442916870118
			vertex -0.2288515592575073 0.37941250000000015 -0.6720616428375242
			vertex -0.2382168306350708 0.37941250000000015 -0.7060196475982664
		endloop
	endfacet
	facet normal 0 0.9999999999999999 2.2204460492503128e-16
		outer loop
			vertex -0.4250133502960205 0.3794125000000002 -1.0809442916870118
			vertex -0.2382168306350708 0.37941250000000015 -0.7060196475982664
			vertex -0.23847396125793455 0.37941250000000015 -0.7412443870544432
		endloop
	endfacet
	facet normal 0 1 2.220446049250313e-16
		outer loop
			vertex -0.18592687797546387 0.3794125000000001 -0.6169586109161376
			vertex 0.24491169815063477 0.37941250000000004 -0.36180674324035633
			vertex -0.15529270133972167 0.3794125000000001 -0.5995690231323241
		endloop
	endfacet
	facet normal 0 0.9999999999999999 2.2204460492503128e-16
		outer loop
			vertex -0.15529270133972167 0.3794125000000001 -0.5995690231323241
			vertex 0.24491169815063477 0.37941250000000004 -0.36180674324035633
			vertex -0.12120158939361572 0.3794125000000001 -0.590700620651245
		endloop
	endfacet
	facet normal 0 1 2.220446049250313e-16
		outer loop
			vertex -0.12120158939361572 0.3794125000000001 -0.590700620651245
			vertex 0.24491169815063477 0.37941250000000004 -0.36180674324035633
			vertex -0.08597676515579224 0.3794125000000001 -0.5909576786041258
		endloop
	endfacet
	facet normal 0 1 2.220446049250313e-16
		outer loop
			vertex -0.08597676515579224 0.3794125000000001 -0.5909576786041258
			vertex 0.24491169815063477 0.37941250000000004 -0.36180674324035633
			vertex -0.05201876645088196 0.3794125000000001 -0.6003229015350341
		endloop
	endfacet
	facet normal 0 1 2.220446049250313e-16
		outer loop
			vertex -0.05201876645088196 0.3794125000000001 -0.6003229015350341
			vertex 0.24491169815063477 0.37941250000000004 -0.36180674324035633
			vertex -0.021641762828826905 0.3794125000000001 -0.618158004760742
		endloop
	endfacet
	facet normal 0 1 2.220446049250313e-16
		outer loop
			vertex -0.021641762828826905 0.3794125000000001 -0.618158004760742
			vertex 0.24491169815063477 0.37941250000000004 -0.36180674324035633
			vertex 0.003084098556637764 0.37941250000000015 -0.6432476554870604
		endloop
	endfacet
	facet normal 0 1 2.220446049250313e-16
		outer loop
			vertex 0.003084098556637764 0.37941250000000015 -0.6432476554870604
			vertex 0.24491169815063477 0.37941250000000004 -0.36180674324035633
			vertex 0.02047379420995712 0.37941250000000015 -0.6738818321228026
		endloop
	endfacet
	facet normal 0 1 2.220446049250313e-16
		outer loop
			vertex 0.02047379420995712 0.37941250000000015 -0.6738818321228026
			vertex 0.24491169815063477 0.37941250000000004 -0.36180674324035633
			vertex 0.029342231512069702 0.37941250000000015 -0.7079729198455809
		endloop
	endfacet
	facet normal 0 1 2.220446049250313e-16
		outer loop
			vertex -0.4250133502960205 0.3794125000000002 -1.0809442916870118
			vertex -0.15711297540664673 0.37941250000000015 -0.8488944053649901
			vertex 0.24491169815063477 0.3794125000000002 -1.0809442916870118
		endloop
	endfacet
	facet normal 0 1 2.220446049250313e-16
		outer loop
			vertex -0.15711297540664673 0.37941250000000015 -0.8488944053649901
			vertex -0.4250133502960205 0.3794125000000002 -1.0809442916870118
			vertex -0.18748997297286987 0.37941250000000015 -0.8310592536926268
		endloop
	endfacet
	facet normal 0 1 2.220446049250313e-16
		outer loop
			vertex -0.18748997297286987 0.37941250000000015 -0.8310592536926268
			vertex -0.4250133502960205 0.3794125000000002 -1.0809442916870118
			vertex -0.21221582565307617 0.37941250000000015 -0.805969699859619
		endloop
	endfacet
	facet normal 0 1 2.220446049250313e-16
		outer loop
			vertex -0.21221582565307617 0.37941250000000015 -0.805969699859619
			vertex -0.4250133502960205 0.3794125000000002 -1.0809442916870118
			vertex -0.22960553455352783 0.37941250000000015 -0.7753355232238768
		endloop
	endfacet
	facet normal 0 1 2.220446049250313e-16
		outer loop
			vertex -0.22960553455352783 0.37941250000000015 -0.7753355232238768
			vertex -0.4250133502960205 0.3794125000000002 -1.0809442916870118
			vertex -0.23847396125793455 0.37941250000000015 -0.7412443870544432
		endloop
	endfacet
	facet normal 0 0.9999999999999999 2.2204460492503128e-16
		outer loop
			vertex 0.24491169815063477 0.3794125000000002 -1.0809442916870118
			vertex -0.15711297540664673 0.37941250000000015 -0.8488944053649901
			vertex -0.12315497064590454 0.37941250000000015 -0.8582596282958983
		endloop
	endfacet
	facet normal 0 1 2.220446049250313e-16
		outer loop
			vertex 0.24491169815063477 0.3794125000000002 -1.0809442916870118
			vertex -0.12315497064590454 0.37941250000000015 -0.8582596282958983
			vertex -0.08793015246391296 0.37941250000000015 -0.8585166862487792
		endloop
	endfacet
	facet normal 0 1 2.220446049250313e-16
		outer loop
			vertex 0.24491169815063477 0.3794125000000002 -1.0809442916870118
			vertex -0.08793015246391296 0.37941250000000015 -0.8585166862487792
			vertex -0.0538390344619751 0.37941250000000015 -0.8496483322143553
		endloop
	endfacet
	facet normal 0 1 2.220446049250313e-16
		outer loop
			vertex 0.24491169815063477 0.3794125000000002 -1.0809442916870118
			vertex -0.0538390344619751 0.37941250000000015 -0.8496483322143553
			vertex -0.023204860854148864 0.37941250000000015 -0.8322586959838866
		endloop
	endfacet
	facet normal 0 1 2.220446049250313e-16
		outer loop
			vertex 0.24491169815063477 0.3794125000000002 -1.0809442916870118
			vertex -0.023204860854148864 0.37941250000000015 -0.8322586959838866
			vertex 0.001884691086411476 0.37941250000000015 -0.8075327827453612
		endloop
	endfacet
	facet normal 0 1 2.220446049250313e-16
		outer loop
			vertex 0.24491169815063477 0.3794125000000002 -1.0809442916870118
			vertex 0.001884691086411476 0.37941250000000015 -0.8075327827453612
			vertex 0.019719812858104705 0.37941250000000015 -0.7771556640624998
		endloop
	endfacet
	facet normal 0 1 2.220446049250313e-16
		outer loop
			vertex 0.24491169815063477 0.3794125000000002 -1.0809442916870118
			vertex 0.019719812858104705 0.37941250000000015 -0.7771556640624998
			vertex 0.029085082721710204 0.37941250000000015 -0.7431979015350341
		endloop
	endfacet
	facet normal 0 1 2.220446049250313e-16
		outer loop
			vertex 0.24491169815063477 0.3794125000000002 -1.0809442916870118
			vertex 0.029085082721710204 0.37941250000000015 -0.7431979015350341
			vertex 0.029342231512069702 0.37941250000000015 -0.7079729198455809
		endloop
	endfacet
	facet normal 0 1 2.220446049250313e-16
		outer loop
			vertex 0.24491169815063477 0.3794125000000002 -1.0809442916870118
			vertex 0.029342231512069702 0.37941250000000015 -0.7079729198455809
			vertex 0.24491169815063477 0.37941250000000004 -0.36180674324035633
		endloop
	endfacet
	facet normal 0.2517591820565277 2.1489252871567973e-16 -0.9677899122486389
		outer loop
			vertex -0.15529270133972167 0.3794125000000001 -0.5995690231323241
			vertex -0.12120158939361572 1.311618859414765e-16 -0.5907006206512451
			vertex -0.15529270133972167 1.3313106686670388e-16 -0.5995690231323242
		endloop
	endfacet
	facet normal 0.2517591820565277 2.1489252871567973e-16 -0.9677899122486389
		outer loop
			vertex -0.12120158939361572 1.311618859414765e-16 -0.5907006206512451
			vertex -0.15529270133972167 0.3794125000000001 -0.5995690231323241
			vertex -0.12120158939361572 0.3794125000000001 -0.590700620651245
		endloop
	endfacet
	facet normal -0.0072974418990587875 2.220386926135853e-16 -0.9999733733163748
		outer loop
			vertex -0.12120158939361572 0.3794125000000001 -0.590700620651245
			vertex -0.08597676515579224 1.3121896427306678e-16 -0.590957678604126
			vertex -0.12120158939361572 1.311618859414765e-16 -0.5907006206512451
		endloop
	endfacet
	facet normal -0.0072974418990587875 2.220386926135853e-16 -0.9999733733163748
		outer loop
			vertex -0.08597676515579224 1.3121896427306678e-16 -0.590957678604126
			vertex -0.12120158939361572 0.3794125000000001 -0.590700620651245
			vertex -0.08597676515579224 0.3794125000000001 -0.5909576786041258
		endloop
	endfacet
	facet normal 0.4936618313582414 1.9310196819726527e-16 -0.8696539520177132
		outer loop
			vertex -0.18592687797546387 0.3794125000000001 -0.6169586109161376
			vertex -0.15529270133972167 1.3313106686670388e-16 -0.5995690231323242
			vertex -0.18592687797546387 1.369923310159699e-16 -0.6169586109161377
		endloop
	endfacet
	facet normal 0.4936618313582414 1.9310196819726527e-16 -0.8696539520177132
		outer loop
			vertex -0.15529270133972167 1.3313106686670388e-16 -0.5995690231323242
			vertex -0.18592687797546387 0.3794125000000001 -0.6169586109161376
			vertex -0.15529270133972167 0.3794125000000001 -0.5995690231323241
		endloop
	endfacet
	facet normal -0.2658630231960172 2.14053400728289e-16 -0.9640108157573098
		outer loop
			vertex -0.08597676515579224 0.3794125000000001 -0.5909576786041258
			vertex -0.05201876645088196 1.3329846149879514e-16 -0.6003229015350342
			vertex -0.08597676515579224 1.3121896427306678e-16 -0.590957678604126
		endloop
	endfacet
	facet normal -0.2658630231960172 2.14053400728289e-16 -0.9640108157573098
		outer loop
			vertex -0.05201876645088196 1.3329846149879514e-16 -0.6003229015350342
			vertex -0.08597676515579224 0.3794125000000001 -0.5909576786041258
			vertex -0.05201876645088196 0.3794125000000001 -0.6003229015350341
		endloop
	endfacet
	facet normal 0.7019267189718641 1.5815108572102562e-16 -0.7122491707214503
		outer loop
			vertex -0.21101640758514403 0.37941250000000015 -0.6416845241546629
			vertex -0.18592687797546387 1.369923310159699e-16 -0.6169586109161377
			vertex -0.21101640758514403 1.4248258665242886e-16 -0.641684524154663
		endloop
	endfacet
	facet normal 0.7019267189718641 1.5815108572102562e-16 -0.7122491707214503
		outer loop
			vertex -0.18592687797546387 1.369923310159699e-16 -0.6169586109161377
			vertex -0.21101640758514403 0.37941250000000015 -0.6416845241546629
			vertex -0.18592687797546387 0.3794125000000001 -0.6169586109161376
		endloop
	endfacet
	facet normal -0.5063087290656322 1.9148067338523013e-16 -0.8623522893063741
		outer loop
			vertex -0.05201876645088196 0.3794125000000001 -0.6003229015350341
			vertex -0.021641762828826905 1.372586499483446e-16 -0.6181580047607421
			vertex -0.05201876645088196 1.3329846149879514e-16 -0.6003229015350342
		endloop
	endfacet
	facet normal -0.5063087290656322 1.9148067338523013e-16 -0.8623522893063741
		outer loop
			vertex -0.021641762828826905 1.372586499483446e-16 -0.6181580047607421
			vertex -0.05201876645088196 0.3794125000000001 -0.6003229015350341
			vertex -0.021641762828826905 0.3794125000000001 -0.618158004760742
		endloop
	endfacet
	facet normal 0.8623525261509511 1.1242303214327964e-16 -0.5063083256683355
		outer loop
			vertex -0.2288515592575073 1.492276619691256e-16 -0.6720616428375243
			vertex -0.21101640758514403 0.37941250000000015 -0.6416845241546629
			vertex -0.21101640758514403 1.4248258665242886e-16 -0.641684524154663
		endloop
	endfacet
	facet normal 0.8623525261509511 1.1242303214327964e-16 -0.5063083256683355
		outer loop
			vertex -0.21101640758514403 0.37941250000000015 -0.6416845241546629
			vertex -0.2288515592575073 1.492276619691256e-16 -0.6720616428375243
			vertex -0.2288515592575073 0.37941250000000015 -0.6720616428375242
		endloop
	endfacet
	facet normal -0.7122516006977235 1.558584935006621e-16 -0.7019242532521087
		outer loop
			vertex 0.003084098556637764 0.37941250000000015 -0.6432476554870604
			vertex -0.021641762828826905 1.372586499483446e-16 -0.6181580047607421
			vertex -0.021641762828826905 0.3794125000000001 -0.618158004760742
		endloop
	endfacet
	facet normal -0.7122516006977235 1.558584935006621e-16 -0.7019242532521087
		outer loop
			vertex -0.021641762828826905 1.372586499483446e-16 -0.6181580047607421
			vertex 0.003084098556637764 0.37941250000000015 -0.6432476554870604
			vertex 0.003084098556637764 1.42829671531577e-16 -0.6432476554870605
		endloop
	endfacet
	facet normal 0.9640104754208988 5.903372396295854e-17 -0.2658642572418728
		outer loop
			vertex -0.2382168306350708 1.5676785372026692e-16 -0.7060196475982665
			vertex -0.2288515592575073 0.37941250000000015 -0.6720616428375242
			vertex -0.2288515592575073 1.492276619691256e-16 -0.6720616428375243
		endloop
	endfacet
	facet normal 0.9640104754208988 5.903372396295854e-17 -0.2658642572418728
		outer loop
			vertex -0.2288515592575073 0.37941250000000015 -0.6720616428375242
			vertex -0.2382168306350708 1.5676785372026692e-16 -0.7060196475982665
			vertex -0.2382168306350708 0.37941250000000015 -0.7060196475982664
		endloop
	endfacet
	facet normal -0.8696526373519923 1.0961546055676898e-16 -0.49366414731751007
		outer loop
			vertex 0.02047379420995712 0.37941250000000015 -0.6738818321228026
			vertex 0.003084098556637764 1.42829671531577e-16 -0.6432476554870605
			vertex 0.003084098556637764 0.37941250000000015 -0.6432476554870604
		endloop
	endfacet
	facet normal -0.8696526373519923 1.0961546055676898e-16 -0.49366414731751007
		outer loop
			vertex 0.003084098556637764 1.42829671531577e-16 -0.6432476554870605
			vertex 0.02047379420995712 0.37941250000000015 -0.6738818321228026
			vertex 0.02047379420995712 1.49631825179864e-16 -0.6738818321228027
		endloop
	endfacet
	facet normal 0.999973358131942 1.6208195531345434e-18 -0.007299522335531544
		outer loop
			vertex -0.23847396125793455 1.6458931707640085e-16 -0.7412443870544433
			vertex -0.2382168306350708 0.37941250000000015 -0.7060196475982664
			vertex -0.2382168306350708 1.5676785372026692e-16 -0.7060196475982665
		endloop
	endfacet
	facet normal 0.999973358131942 1.6208195531345434e-18 -0.007299522335531544
		outer loop
			vertex -0.2382168306350708 0.37941250000000015 -0.7060196475982664
			vertex -0.23847396125793455 1.6458931707640085e-16 -0.7412443870544433
			vertex -0.23847396125793455 0.37941250000000015 -0.7412443870544432
		endloop
	endfacet
	facet normal -0.9677896278114254 5.59020109007418e-17 -0.25176027546184215
		outer loop
			vertex 0.029342231512069702 0.37941250000000015 -0.7079729198455809
			vertex 0.02047379420995712 1.49631825179864e-16 -0.6738818321228027
			vertex 0.02047379420995712 0.37941250000000015 -0.6738818321228026
		endloop
	endfacet
	facet normal -0.9677896278114254 5.59020109007418e-17 -0.25176027546184215
		outer loop
			vertex 0.02047379420995712 1.49631825179864e-16 -0.6738818321228027
			vertex 0.029342231512069702 0.37941250000000015 -0.7079729198455809
			vertex 0.029342231512069702 1.5720156728473288e-16 -0.707972919845581
		endloop
	endfacet
	facet normal 0.9677897882860166 -5.590187392589301e-17 0.2517596585819642
		outer loop
			vertex -0.22960553455352783 1.7215906993858818e-16 -0.7753355232238769
			vertex -0.23847396125793455 0.37941250000000015 -0.7412443870544432
			vertex -0.23847396125793455 1.6458931707640085e-16 -0.7412443870544433
		endloop
	endfacet
	facet normal 0.9677897882860166 -5.590187392589301e-17 0.2517596585819642
		outer loop
			vertex -0.23847396125793455 0.37941250000000015 -0.7412443870544432
			vertex -0.22960553455352783 1.7215906993858818e-16 -0.7753355232238769
			vertex -0.22960553455352783 0.37941250000000015 -0.7753355232238768
		endloop
	endfacet
	facet normal -0.9999733547336659 -1.6209229194472085e-18 0.007299987856018745
		outer loop
			vertex 0.029085082721710204 0.37941250000000015 -0.7431979015350341
			vertex 0.029342231512069702 1.5720156728473288e-16 -0.707972919845581
			vertex 0.029342231512069702 0.37941250000000015 -0.7079729198455809
		endloop
	endfacet
	facet normal -0.9999733547336659 -1.6209229194472085e-18 0.007299987856018745
		outer loop
			vertex 0.029342231512069702 1.5720156728473288e-16 -0.707972919845581
			vertex 0.029085082721710204 0.37941250000000015 -0.7431979015350341
			vertex 0.029085082721710204 1.6502308442745898e-16 -0.7431979015350342
		endloop
	endfacet
	facet normal 0.8696524759016647 -1.0961552370965775e-16 0.4936644317328364
		outer loop
			vertex -0.21221582565307617 1.7896122358687518e-16 -0.8059696998596191
			vertex -0.22960553455352783 0.37941250000000015 -0.7753355232238768
			vertex -0.22960553455352783 1.7215906993858818e-16 -0.7753355232238769
		endloop
	endfacet
	facet normal 0.8696524759016647 -1.0961552370965775e-16 0.4936644317328364
		outer loop
			vertex -0.22960553455352783 0.37941250000000015 -0.7753355232238768
			vertex -0.21221582565307617 1.7896122358687518e-16 -0.8059696998596191
			vertex -0.21221582565307617 0.37941250000000015 -0.805969699859619
		endloop
	endfacet
	facet normal -0.9640100003676484 -5.903410643773894e-17 0.2658659797551513
		outer loop
			vertex 0.019719812858104705 0.37941250000000015 -0.7771556640624998
			vertex 0.029085082721710204 1.6502308442745898e-16 -0.7431979015350342
			vertex 0.029085082721710204 0.37941250000000015 -0.7431979015350341
		endloop
	endfacet
	facet normal -0.9640100003676484 -5.903410643773894e-17 0.2658659797551513
		outer loop
			vertex 0.029085082721710204 1.6502308442745898e-16 -0.7431979015350342
			vertex 0.019719812858104705 0.37941250000000015 -0.7771556640624998
			vertex 0.019719812858104705 1.7256322239200815e-16 -0.7771556640624999
		endloop
	endfacet
	facet normal 0.7122503690140803 -1.5585877101269746e-16 0.7019255030552077
		outer loop
			vertex -0.18748997297286987 1.845322236554707e-16 -0.8310592536926269
			vertex -0.21221582565307617 0.37941250000000015 -0.805969699859619
			vertex -0.21221582565307617 1.7896122358687518e-16 -0.8059696998596191
		endloop
	endfacet
	facet normal 0.7122503690140803 -1.5585877101269746e-16 0.7019255030552077
		outer loop
			vertex -0.21221582565307617 0.37941250000000015 -0.805969699859619
			vertex -0.18748997297286987 1.845322236554707e-16 -0.8310592536926269
			vertex -0.18748997297286987 0.37941250000000015 -0.8310592536926268
		endloop
	endfacet
	facet normal -0.8623528967625501 -1.1242289198157595e-16 0.506307694436139
		outer loop
			vertex 0.001884691086411476 0.37941250000000015 -0.8075327827453612
			vertex 0.019719812858104705 1.7256322239200815e-16 -0.7771556640624999
			vertex 0.019719812858104705 0.37941250000000015 -0.7771556640624998
		endloop
	endfacet
	facet normal -0.8623528967625501 -1.1242289198157595e-16 0.506307694436139
		outer loop
			vertex 0.019719812858104705 1.7256322239200815e-16 -0.7771556640624999
			vertex 0.001884691086411476 0.37941250000000015 -0.8075327827453612
			vertex 0.001884691086411476 1.793082977087049e-16 -0.8075327827453613
		endloop
	endfacet
	facet normal 0.5063098268838506 -1.9148053026468338e-16 0.862351644748733
		outer loop
			vertex -0.15711297540664673 0.37941250000000015 -0.8488944053649901
			vertex -0.18748997297286987 1.845322236554707e-16 -0.8310592536926269
			vertex -0.15711297540664673 1.8849242286233862e-16 -0.8488944053649902
		endloop
	endfacet
	facet normal 0.5063098268838506 -1.9148053026468338e-16 0.862351644748733
		outer loop
			vertex -0.18748997297286987 1.845322236554707e-16 -0.8310592536926269
			vertex -0.15711297540664673 0.37941250000000015 -0.8488944053649901
			vertex -0.18748997297286987 0.37941250000000015 -0.8310592536926268
		endloop
	endfacet
	facet normal -0.7019264020378144 -1.5815115507458483e-16 0.7122494830621138
		outer loop
			vertex 0.001884691086411476 0.37941250000000015 -0.8075327827453612
			vertex -0.023204860854148864 1.8479855334516386e-16 -0.8322586959838867
			vertex 0.001884691086411476 1.793082977087049e-16 -0.8075327827453613
		endloop
	endfacet
	facet normal -0.7019264020378144 -1.5815115507458483e-16 0.7122494830621138
		outer loop
			vertex -0.023204860854148864 1.8479855334516386e-16 -0.8322586959838867
			vertex 0.001884691086411476 0.37941250000000015 -0.8075327827453612
			vertex -0.023204860854148864 0.37941250000000015 -0.8322586959838866
		endloop
	endfacet
	facet normal 0.26586297913511275 -2.1405340342646098e-16 0.9640108279087961
		outer loop
			vertex -0.12315497064590454 0.37941250000000015 -0.8582596282958983
			vertex -0.15711297540664673 1.8849242286233862e-16 -0.8488944053649902
			vertex -0.12315497064590454 1.9057192008806698e-16 -0.8582596282958984
		endloop
	endfacet
	facet normal 0.26586297913511275 -2.1405340342646098e-16 0.9640108279087961
		outer loop
			vertex -0.15711297540664673 1.8849242286233862e-16 -0.8488944053649902
			vertex -0.12315497064590454 0.37941250000000015 -0.8582596282958983
			vertex -0.15711297540664673 0.37941250000000015 -0.8488944053649901
		endloop
	endfacet
	facet normal -0.493662908412565 -1.9310183244048307e-16 0.8696533406235195
		outer loop
			vertex -0.023204860854148864 0.37941250000000015 -0.8322586959838866
			vertex -0.0538390344619751 1.886598282517483e-16 -0.8496483322143554
			vertex -0.023204860854148864 1.8479855334516386e-16 -0.8322586959838867
		endloop
	endfacet
	facet normal -0.493662908412565 -1.9310183244048307e-16 0.8696533406235195
		outer loop
			vertex -0.0538390344619751 1.886598282517483e-16 -0.8496483322143554
			vertex -0.023204860854148864 0.37941250000000015 -0.8322586959838866
			vertex -0.0538390344619751 0.37941250000000015 -0.8496483322143553
		endloop
	endfacet
	facet normal 0.007297443153564289 -2.2203869261155247e-16 0.9999733733072198
		outer loop
			vertex -0.08793015246391296 0.37941250000000015 -0.8585166862487792
			vertex -0.12315497064590454 1.9057192008806698e-16 -0.8582596282958984
			vertex -0.08793015246391296 1.9062899841965726e-16 -0.8585166862487793
		endloop
	endfacet
	facet normal 0.007297443153564289 -2.2203869261155247e-16 0.9999733733072198
		outer loop
			vertex -0.12315497064590454 1.9057192008806698e-16 -0.8582596282958984
			vertex -0.08793015246391296 0.37941250000000015 -0.8585166862487792
			vertex -0.12315497064590454 0.37941250000000015 -0.8582596282958983
		endloop
	endfacet
	facet normal -0.25175785202054535 -2.1489260554139618e-16 0.9677902582409068
		outer loop
			vertex -0.0538390344619751 0.37941250000000015 -0.8496483322143553
			vertex -0.08793015246391296 1.9062899841965726e-16 -0.8585166862487793
			vertex -0.0538390344619751 1.886598282517483e-16 -0.8496483322143554
		endloop
	endfacet
	facet normal -0.25175785202054535 -2.1489260554139618e-16 0.9677902582409068
		outer loop
			vertex -0.08793015246391296 1.9062899841965726e-16 -0.8585166862487793
			vertex -0.0538390344619751 0.37941250000000015 -0.8496483322143553
			vertex -0.08793015246391296 0.37941250000000015 -0.8585166862487792
		endloop
	endfacet
endsolid exported
